<?xml version="1.0" encoding="UTF-8"?>
<svg width="261px" height="39px" viewBox="0 0 261 39" version="1.1" xmlns="http://www.w3.org/2000/svg" xmlns:xlink="http://www.w3.org/1999/xlink">
    <title>Pathscale/ pink</title>
    <g id="Page-1" stroke="none" stroke-width="1" fill="none" fill-rule="evenodd">
        <g id="Dark-pink-wolf" transform="translate(-77.000000, -31.000000)">
            <g id="pathscale/-pink" transform="translate(77.000000, 31.000000)">
                <g id="Group-25">
                    <path d="M93.5386141,25.4242681 L93.3550536,26.3420703 C92.4831415,29.554378 89.5920646,32.3077846 86.1503064,32.3077846 C83.5804602,32.3077846 81.8819525,30.6557407 81.8819525,28.2694549 C81.8819525,24.1393451 85.415491,20.4222462 89.5461745,20.4222462 C91.9783503,20.4222462 93.6303943,22.0284 93.6303943,24.3687956 C93.6303943,24.7359165 93.5845042,25.0571473 93.5386141,25.4242681 L93.5386141,25.4242681 Z M95.0988778,18.0818505 C93.6303943,15.5120044 91.014658,13.9517407 87.7105701,13.9517407 C80.0928119,13.9517407 74.4018646,21.2482681 74.4018646,29.0954769 C74.4018646,34.7399604 78.0271833,38.7782901 83.4881064,38.7782901 C86.5627437,38.7782901 89.2708338,37.5392571 91.427669,35.5206659 L90.8769877,38.2276088 L98.6324163,38.2276088 L103.589122,14.502422 L95.8331196,14.502422 L95.0988778,18.0818505 Z" id="Fill-1" fill="#FF3EAB"></path>
                    <path d="M113.936194,32.3077846 C113.156062,32.3077846 112.651271,31.8947736 112.651271,30.8857648 C112.651271,30.3350835 112.788942,29.7844022 114.670436,20.6975868 L119.580678,20.6975868 L120.865601,14.502422 L115.955359,14.502422 L117.332062,7.98602637 L109.897865,7.98602637 L108.521161,14.502422 L105.400634,14.502422 L104.115137,20.6975868 L107.236238,20.6975868 C105.217073,30.3350835 104.941733,31.3440923 104.941733,32.5372352 C104.941733,36.1631275 107.557469,38.7782901 111.412238,38.7782901 C113.523183,38.7782901 115.817689,37.9987319 117.423843,36.7138088 L116.597821,31.2982022 C116.13892,31.7571033 114.991667,32.3077846 113.936194,32.3077846" id="Fill-3" fill="#FF3EAB"></path>
                    <path d="M137.63161,13.7741459 C134.971131,13.8573218 132.479871,14.9443437 130.791115,16.7420888 L132.664579,6.12311736 L124.912592,6.36461407 L119.260078,38.6339657 L127.011491,38.3930426 L129.427032,24.5434075 C130.001805,22.3676426 132.236654,20.4155921 134.760036,20.3370053 C136.502713,20.2830844 137.590309,21.3052866 137.645951,23.0938536 C137.671764,23.9198756 137.555891,24.6122426 135.130599,38.140647 L142.560781,37.908902 C145.059498,23.7816316 145.389333,22.5775899 145.335412,20.834913 C145.202331,16.56828 142.26479,13.6301657 137.63161,13.7741459" id="Fill-5" fill="#FF3EAB"></path>
                    <path d="M163.589351,19.1373231 C159.780471,18.2189473 158.495548,17.8065099 158.495548,16.4751231 C158.495548,14.6395187 160.422933,12.7127077 163.818801,12.7127077 C166.021526,12.7127077 169.233834,13.6299363 171.712474,15.8785516 L176.485045,10.6470791 C173.502188,7.71011209 169.096737,6.14984835 164.553043,6.14984835 C156.155153,6.14984835 150.510669,11.0606637 150.510669,17.4852791 C150.510669,22.9003121 154.778449,24.3229055 160.881834,25.8372791 C164.782493,26.8009714 165.883856,27.1680923 165.883856,28.4071253 C165.883856,30.2886198 163.818801,32.2160044 159.872252,32.2160044 C156.889395,32.2160044 153.401746,30.9775451 150.8319,28.4071253 L145.691634,33.3179407 C148.812735,36.6679187 153.906537,38.7782901 159.32157,38.7782901 C167.5359,38.7782901 173.868735,34.2351692 173.868735,27.3975429 C173.868735,22.6249714 170.702318,20.789367 163.589351,19.1373231" id="Fill-7" fill="#FFFFFF"></path>
                    <path d="M187.428976,32.3077846 C184.9968,32.3077846 183.161196,30.4268637 183.161196,27.9941143 C183.161196,24.2770154 186.832404,20.4222462 190.778954,20.4222462 C192.155657,20.4222462 193.853591,21.0641341 194.633723,22.2119604 L200.278207,18.4030813 C198.488492,15.8785516 195.413855,13.9517407 191.283745,13.9517407 C183.482426,13.9517407 175.818204,20.376356 175.818204,28.1776747 C175.818204,34.0516088 180.545459,38.7782901 186.878295,38.7782901 C190.916624,38.7782901 194.404273,37.3562703 197.295349,34.6481802 L192.752229,29.967389 C191.421415,31.2523121 189.31047,32.3077846 187.428976,32.3077846" id="Fill-9" fill="#FFFFFF"></path>
                    <path d="M217.303495,25.4242681 L217.119934,26.3420703 C216.248022,29.554378 213.356945,32.3077846 209.915187,32.3077846 C207.345341,32.3077846 205.646833,30.6557407 205.646833,28.2694549 C205.646833,24.1393451 209.180372,20.4222462 213.311055,20.4222462 C215.743231,20.4222462 217.395275,22.0284 217.395275,24.3687956 C217.395275,24.7359165 217.349385,25.0571473 217.303495,25.4242681 L217.303495,25.4242681 Z M219.598,14.502422 L218.863758,18.0818505 C217.395275,15.5120044 214.779539,13.9517407 211.475451,13.9517407 C203.857693,13.9517407 198.166745,21.2482681 198.166745,29.0954769 C198.166745,34.7399604 201.792064,38.7782901 207.252987,38.7782901 C210.327624,38.7782901 213.035715,37.5392571 215.19255,35.5206659 L214.641868,38.2276088 L222.397297,38.2276088 L227.354002,14.502422 L219.598,14.502422 Z" id="Fill-11" fill="#FFFFFF"></path>
                    <polygon id="Fill-13" fill="#FFFFFF" points="231.59769 6.1500778 224.943624 38.2278382 232.699053 38.2278382 239.353693 6.1500778"></polygon>
                    <path d="M251.147164,19.8717369 C252.845098,19.8717369 254.130021,20.5136248 254.130021,21.5237809 C254.084131,23.0840446 252.477977,23.9559567 249.724571,23.9559567 L244.630768,23.9559567 C246.007472,21.6155611 248.393757,19.8717369 251.147164,19.8717369 L251.147164,19.8717369 Z M248.852658,28.3155171 C256.149186,28.4990776 260.508746,25.5162204 260.508746,20.4224182 C260.508746,16.5670754 256.608087,13.9519127 251.376615,13.9519127 C243.254065,13.9519127 236.737096,20.5595149 236.737096,28.6367479 C236.737096,34.6942424 240.913669,38.7784622 247.430065,38.7784622 C250.780043,38.7784622 255.093713,37.4941127 257.66356,35.2908138 L253.85468,30.5182424 C252.110856,31.8490556 249.724571,32.858638 247.475955,32.858638 C244.906109,32.858638 243.345272,31.160704 243.345272,28.4990776 L243.345272,28.3155171 L248.852658,28.3155171 Z" id="Fill-15" fill="#FFFFFF"></path>
                    <path d="M62.0353404,21.2021486 L56.1155163,21.2021486 L57.6298899,13.859731 L64.0545053,13.859731 C66.3490108,13.859731 67.7716042,14.8234233 67.7716042,16.3383705 C67.7716042,18.7699727 64.9723075,21.2021486 62.0353404,21.2021486 M65.6606591,6.70087385 L51.250591,6.70087385 L44.6883053,38.227953 L52.5355141,38.227953 L54.6470327,28.3610057 L61.6223295,28.3610057 C69.4695382,28.3610057 75.7564833,22.9918629 75.7564833,15.7412255 C75.7564833,10.3720826 71.7181536,6.70087385 65.6606591,6.70087385" id="Fill-23" fill="#FF3EAB"></path>
                    <g id="Group" transform="translate(0.116446, 0.319108)" fill="#FF3EAB">
                        <path d="M37.7750749,37.9086725 L43.4396354,12.3931978 L27.6511431,1.42108547e-14 C25.5516705,1.15298901 22.5791387,2.3707978 19.3863343,3.43258022 L33.9059651,14.8299626 L27.457831,37.9086725" id="Fill-17"></path>
                        <path d="M15.9545571,4.4887411 C15.3488077,4.66025538 14.7436319,4.8237389 14.1430451,4.97747077 C12.5248451,5.39048176 10.8561659,5.75530813 9.21444725,6.06047736 L23.706544,17.436062 L18.3649352,37.9087873 L24.2480473,37.9087873 L30.3021,15.7507477 L15.9545571,4.4887411 Z" id="Fill-19"></path>
                        <path d="M5.23434066,6.68693473 C3.29663077,6.93359407 1.49888571,7.06954352 2.34479103e-13,7.06667538 L15.7884923,19.4604468 L11.3245319,37.9088446 L15.1552088,37.9088446 L20.1021626,18.3579369 L5.23434066,6.68693473 Z" id="Fill-21"></path>
                    </g>
                </g>
            </g>
        </g>
    </g>
</svg>